REM DIRINDEX 1\6,1\2\7,1\2\8,1\2\9,1\3\10,1\3\11,1\4\12,1\4\13,1\4\14,1\5\15,1\5\16,1\5\17
REM DIRNAME folder01,folder02,folder03,folder04,folder05,folder06,folder07,folder08,folder09,folder10,folder11,folder12,folder13,folder14,folder15,folder16,folder17
TITLE ""
FILE "P2Q_t2_0875-0892.mp3" MP3
  TRACK 01 AUDIO
    TITLE "7:cjc040_6458"
    INDEX 01 00:00:00
  TRACK 02 AUDIO
    TITLE "0:"
    INDEX 01 00:01:03
  TRACK 03 AUDIO
    TITLE "8:cjc040_6459"
    INDEX 01 00:01:64
  TRACK 04 AUDIO
    TITLE "0:"
    INDEX 01 00:04:21
  TRACK 05 AUDIO
    TITLE "9:cjc040_6460"
    INDEX 01 00:04:72
  TRACK 06 AUDIO
    TITLE "0:"
    INDEX 01 00:06:12
  TRACK 07 AUDIO
    TITLE "7:cjc040_6461"
    INDEX 01 00:07:66
  TRACK 08 AUDIO
    TITLE "0:"
    INDEX 01 00:09:00
  TRACK 09 AUDIO
    TITLE "8:cjc040_6462"
    INDEX 01 00:09:57
  TRACK 10 AUDIO
    TITLE "0:"
    INDEX 01 00:12:01
  TRACK 11 AUDIO
    TITLE "9:cjc040_6463"
    INDEX 01 00:12:56
  TRACK 12 AUDIO
    TITLE "0:"
    INDEX 01 00:14:00
  TRACK 13 AUDIO
    TITLE "7:cjc040_6464"
    INDEX 01 00:15:54
  TRACK 14 AUDIO
    TITLE "0:"
    INDEX 01 00:16:63
  TRACK 15 AUDIO
    TITLE "8:cjc040_6465"
    INDEX 01 00:17:43
  TRACK 16 AUDIO
    TITLE "0:"
    INDEX 01 00:18:60
  TRACK 17 AUDIO
    TITLE "9:cjc040_6466"
    INDEX 01 00:19:42
  TRACK 18 AUDIO
    TITLE "0:"
    INDEX 01 00:20:57
  TRACK 19 AUDIO
    TITLE "7:cjc040_6467"
    INDEX 01 00:22:34
  TRACK 20 AUDIO
    TITLE "0:"
    INDEX 01 00:23:36
  TRACK 21 AUDIO
    TITLE "8:cjc040_6468"
    INDEX 01 00:24:18
  TRACK 22 AUDIO
    TITLE "0:"
    INDEX 01 00:25:21
  TRACK 23 AUDIO
    TITLE "9:cjc040_6469"
    INDEX 01 00:26:03
  TRACK 24 AUDIO
    TITLE "0:"
    INDEX 01 00:27:12
  TRACK 25 AUDIO
    TITLE "7:cjc040_6470"
    INDEX 01 00:28:70
  TRACK 26 AUDIO
    TITLE "0:"
    INDEX 01 00:29:70
  TRACK 27 AUDIO
    TITLE "8:cjc040_6471"
    INDEX 01 00:30:50
  TRACK 28 AUDIO
    TITLE "0:"
    INDEX 01 00:31:45
  TRACK 29 AUDIO
    TITLE "9:cjc040_6472"
    INDEX 01 00:32:23
  TRACK 30 AUDIO
    TITLE "0:"
    INDEX 01 00:33:28
  TRACK 31 AUDIO
    TITLE "7:cjc040_6473"
    INDEX 01 00:35:12
  TRACK 32 AUDIO
    TITLE "0:"
    INDEX 01 00:36:21
  TRACK 33 AUDIO
    TITLE "8:cjc040_6474"
    INDEX 01 00:37:03
  TRACK 34 AUDIO
    TITLE "0:"
    INDEX 01 00:37:67
  TRACK 35 AUDIO
    TITLE "9:cjc040_6475"
    INDEX 01 00:38:47
  TRACK 36 AUDIO
    TITLE "0:"
    INDEX 01 00:39:64
  TRACK 37 AUDIO
    TITLE "7:cjc040_6476"
    INDEX 01 00:41:44
  TRACK 38 AUDIO
    TITLE "0:"
    INDEX 01 00:42:63
  TRACK 39 AUDIO
    TITLE "8:cjc040_6477"
    INDEX 01 00:43:44
  TRACK 40 AUDIO
    TITLE "0:"
    INDEX 01 00:45:55
  TRACK 41 AUDIO
    TITLE "9:cjc040_6478"
    INDEX 01 00:46:35
  TRACK 42 AUDIO
    TITLE "0:"
    INDEX 01 00:47:54
  TRACK 43 AUDIO
    TITLE "7:cjc040_6479"
    INDEX 01 00:49:41
  TRACK 44 AUDIO
    TITLE "0:"
    INDEX 01 00:51:01
  TRACK 45 AUDIO
    TITLE "8:cjc040_6480"
    INDEX 01 00:51:54
  TRACK 46 AUDIO
    TITLE "0:"
    INDEX 01 00:52:61
  TRACK 47 AUDIO
    TITLE "9:cjc040_6481"
    INDEX 01 00:53:37
  TRACK 48 AUDIO
    TITLE "0:"
    INDEX 01 00:54:72
  TRACK 49 AUDIO
    TITLE "7:cjc040_6482"
    INDEX 01 00:56:57
  TRACK 50 AUDIO
    TITLE "0:"
    INDEX 01 00:57:66
  TRACK 51 AUDIO
    TITLE "8:cjc040_6483"
    INDEX 01 00:58:42
  TRACK 52 AUDIO
    TITLE "0:"
    INDEX 01 00:59:45
  TRACK 53 AUDIO
    TITLE "9:cjc040_6484"
    INDEX 01 01:00:25
  TRACK 54 AUDIO
    TITLE "0:"
    INDEX 01 01:01:36
  TRACK 55 AUDIO
    TITLE "7:cjc040_6485"
    INDEX 01 01:03:20
  TRACK 56 AUDIO
    TITLE "0:"
    INDEX 01 01:04:37
  TRACK 57 AUDIO
    TITLE "8:cjc040_6486"
    INDEX 01 01:05:13
  TRACK 58 AUDIO
    TITLE "0:"
    INDEX 01 01:07:19
  TRACK 59 AUDIO
    TITLE "9:cjc040_6487"
    INDEX 01 01:07:63
  TRACK 60 AUDIO
    TITLE "0:"
    INDEX 01 01:09:07
  TRACK 61 AUDIO
    TITLE "7:cjc040_6488"
    INDEX 01 01:10:61
  TRACK 62 AUDIO
    TITLE "0:"
    INDEX 01 01:12:21
  TRACK 63 AUDIO
    TITLE "8:cjc040_6489"
    INDEX 01 01:13:06
  TRACK 64 AUDIO
    TITLE "0:"
    INDEX 01 01:16:42
  TRACK 65 AUDIO
    TITLE "9:cjc040_6490"
    INDEX 01 01:17:18
  TRACK 66 AUDIO
    TITLE "0:"
    INDEX 01 01:18:54
  TRACK 67 AUDIO
    TITLE "7:cjc040_6491"
    INDEX 01 01:20:36
  TRACK 68 AUDIO
    TITLE "0:"
    INDEX 01 01:21:39
  TRACK 69 AUDIO
    TITLE "8:cjc040_6492"
    INDEX 01 01:22:17
  TRACK 70 AUDIO
    TITLE "0:"
    INDEX 01 01:23:34
  TRACK 71 AUDIO
    TITLE "9:cjc040_6493"
    INDEX 01 01:24:10
  TRACK 72 AUDIO
    TITLE "0:"
    INDEX 01 01:25:15
  TRACK 73 AUDIO
    TITLE "7:cjc040_6494"
    INDEX 01 01:27:03
  TRACK 74 AUDIO
    TITLE "0:"
    INDEX 01 01:28:24
  TRACK 75 AUDIO
    TITLE "8:cjc040_6495"
    INDEX 01 01:29:01
  TRACK 76 AUDIO
    TITLE "0:"
    INDEX 01 01:31:24
  TRACK 77 AUDIO
    TITLE "9:cjc040_6496"
    INDEX 01 01:31:73
  TRACK 78 AUDIO
    TITLE "0:"
    INDEX 01 01:33:21
  TRACK 79 AUDIO
    TITLE "7:cjc040_6497"
    INDEX 01 01:35:02
  TRACK 80 AUDIO
    TITLE "0:"
    INDEX 01 01:36:21
  TRACK 81 AUDIO
    TITLE "8:cjc040_6498"
    INDEX 01 01:36:68
  TRACK 82 AUDIO
    TITLE "0:"
    INDEX 01 01:40:15
  TRACK 83 AUDIO
    TITLE "9:cjc040_6499"
    INDEX 01 01:40:68
  TRACK 84 AUDIO
    TITLE "0:"
    INDEX 01 01:42:16
  TRACK 85 AUDIO
    TITLE "7:cjc040_6500"
    INDEX 01 01:43:68
  TRACK 86 AUDIO
    TITLE "0:"
    INDEX 01 01:45:18
  TRACK 87 AUDIO
    TITLE "8:cjc040_6501"
    INDEX 01 01:45:71
  TRACK 88 AUDIO
    TITLE "0:"
    INDEX 01 01:48:14
  TRACK 89 AUDIO
    TITLE "9:cjc040_6502"
    INDEX 01 01:48:61
  TRACK 90 AUDIO
    TITLE "0:"
    INDEX 01 01:50:09
  TRACK 91 AUDIO
    TITLE "7:cjc040_6503"
    INDEX 01 01:51:60
  TRACK 92 AUDIO
    TITLE "0:"
    INDEX 01 01:53:20
  TRACK 93 AUDIO
    TITLE "8:cjc040_6504"
    INDEX 01 01:53:72
  TRACK 94 AUDIO
    TITLE "0:"
    INDEX 01 01:55:24
  TRACK 95 AUDIO
    TITLE "9:cjc040_6505"
    INDEX 01 01:56:04
  TRACK 96 AUDIO
    TITLE "0:"
    INDEX 01 01:57:43
  TRACK 97 AUDIO
    TITLE "7:cjc040_6506"
    INDEX 01 01:59:20
  TRACK 98 AUDIO
    TITLE "0:"
    INDEX 01 02:00:27
  TRACK 99 AUDIO
    TITLE "8:cjc040_6507"
    INDEX 01 02:00:74
  TRACK 100 AUDIO
    TITLE "0:"
    INDEX 01 02:02:18
  TRACK 101 AUDIO
    TITLE "9:cjc040_6508"
    INDEX 01 02:02:71
  TRACK 102 AUDIO
    TITLE "0:"
    INDEX 01 02:04:06
  TRACK 103 AUDIO
    TITLE "7:cjc040_6509"
    INDEX 01 02:05:60
  TRACK 104 AUDIO
    TITLE "0:"
    INDEX 01 02:06:61
  TRACK 105 AUDIO
    TITLE "8:cjc040_6510"
    INDEX 01 02:07:45
  TRACK 106 AUDIO
    TITLE "0:"
    INDEX 01 02:10:51
  TRACK 107 AUDIO
    TITLE "9:cjc040_6511"
    INDEX 01 02:11:27
  TRACK 108 AUDIO
    TITLE "0:"
    INDEX 01 02:12:31
